ffmpeg started on 2025-05-29 at 16:39:02
Report written to "D:\Convert\FFMetrics\reports\psnr_report-6.txt"
Log level: 32
Command line:
ffmpeg -hide_banner -nostdin -i "G:\\\xc0\xed\xe8\xec\xe5\\\xce\xed\xe3\xee\xe8\xed\xe3\xe8\\!_36_\xce\xf1\xe5\xed\xfc_2024\\JamClub\\\xd2\xfb - \xe3\xee\xf0\xed\xe8\xf7\xed\xe0\xff\\JamClub_Kimi_wa_Meido_sama_11_1080p_HEVC.mkv" -i "G:\\\xc0\xed\xe8\xec\xe5\\\xce\xed\xe3\xee\xe8\xed\xe3\xe8\\!_36_\xce\xf1\xe5\xed\xfc_2024\\JamClub\\\xd2\xfb - \xe3\xee\xf0\xed\xe8\xf7\xed\xe0\xff\\JamClub_Kimi_wa_Meido_sama_11_1080p.mp4" -lavfi "[0:v]settb=AVTB,setpts=PTS-STARTPTS,format=pix_fmts=yuv420p10,fps=24000/1001,scale=1920:1080:flags=bicubic[main];[1:v]settb=AVTB,setpts=PTS-STARTPTS,format=pix_fmts=yuv420p,fps=24000/1001,scale=1920:1080:flags=bicubic[ref];[main][ref]psnr=eof_action=endall:stats_file='D\\:/Convert/FFMetrics/logs/psnr_logfile-6.txt'" -f null -
Input #0, matroska,webm, from 'G:\Аниме\Онгоинги\!_36_Осень_2024\JamClub\Ты - горничная\JamClub_Kimi_wa_Meido_sama_11_1080p_HEVC.mkv':
  Metadata:
    COMPATIBLE_BRANDS: isomiso2avc1mp41
    MAJOR_BRAND     : isom
    MINOR_VERSION   : 512
    ENCODER         : Lavf61.7.100
  Duration: 00:23:22.26, start: -0.001000, bitrate: 1844 kb/s
  Stream #0:0: Video: hevc (Main 10), yuv420p10le(tv, bt709, progressive), 1920x1080 [SAR 1:1 DAR 16:9], 23.98 fps, 23.98 tbr, 1k tbn (default)
      Metadata:
        HANDLER_NAME    : VideoHandler
        VENDOR_ID       : [0][0][0][0]
        ENCODER         : Lavc61.19.100 libx265
        BPS             : 1646448
        DURATION        : 00:23:22.192708333
        NUMBER_OF_FRAMES: 33619
        NUMBER_OF_BYTES : 288579691
        _STATISTICS_WRITING_APP: mkvpropedit v66.0.0 ('Josie') 64-bit
        _STATISTICS_WRITING_DATE_UTC: 2025-05-29 11:27:18
        _STATISTICS_TAGS: BPS DURATION NUMBER_OF_FRAMES NUMBER_OF_BYTES
  Stream #0:1(eng): Audio: aac (LC), 48000 Hz, stereo, fltp (default)
      Metadata:
        HANDLER_NAME    : SoundHandler
        VENDOR_ID       : [0][0][0][0]
        ENCODER         : Lavc61.19.100 aac
        BPS             : 193622
        DURATION        : 00:23:22.221000000
        NUMBER_OF_FRAMES: 65730
        NUMBER_OF_BYTES : 33937627
        _STATISTICS_WRITING_APP: mkvpropedit v66.0.0 ('Josie') 64-bit
        _STATISTICS_WRITING_DATE_UTC: 2025-05-29 11:27:18
        _STATISTICS_TAGS: BPS DURATION NUMBER_OF_FRAMES NUMBER_OF_BYTES
Input #1, mov,mp4,m4a,3gp,3g2,mj2, from 'G:\Аниме\Онгоинги\!_36_Осень_2024\JamClub\Ты - горничная\JamClub_Kimi_wa_Meido_sama_11_1080p.mp4':
  Metadata:
    major_brand     : isom
    minor_version   : 512
    compatible_brands: isomiso2avc1mp41
    encoder         : Lavf60.16.100
  Duration: 00:23:22.24, start: 0.000000, bitrate: 4049 kb/s
  Stream #1:0[0x1](und): Video: h264 (High) (avc1 / 0x31637661), yuv420p(progressive), 1920x1080 [SAR 1:1 DAR 16:9], 3851 kb/s, 23.98 fps, 23.98 tbr, 90k tbn (default)
      Metadata:
        handler_name    : VideoHandler
        vendor_id       : [0][0][0][0]
  Stream #1:1[0x2](eng): Audio: aac (LC) (mp4a / 0x6134706D), 48000 Hz, stereo, fltp, 191 kb/s (default)
      Metadata:
        handler_name    : SoundHandler
        vendor_id       : [0][0][0][0]
Stream mapping:
  Stream #0:0 (hevc) -> settb:default
  Stream #1:0 (h264) -> settb:default
  psnr:default -> Stream #0:0 (wrapped_avframe)
  Stream #0:1 -> #0:1 (aac (native) -> pcm_s16le (native))
Output #0, null, to 'pipe:':
  Metadata:
    COMPATIBLE_BRANDS: isomiso2avc1mp41
    MAJOR_BRAND     : isom
    MINOR_VERSION   : 512
    encoder         : Lavf61.7.100
  Stream #0:0: Video: wrapped_avframe, yuv420p10le(tv, bt709, progressive), 1920x1080 [SAR 1:1 DAR 16:9], q=2-31, 200 kb/s, 23.98 fps, 23.98 tbn
      Metadata:
        encoder         : Lavc61.19.100 wrapped_avframe
  Stream #0:1(eng): Audio: pcm_s16le, 48000 Hz, stereo, s16, 1536 kb/s (default)
      Metadata:
        HANDLER_NAME    : SoundHandler
        VENDOR_ID       : [0][0][0][0]
        _STATISTICS_TAGS: BPS DURATION NUMBER_OF_FRAMES NUMBER_OF_BYTES
        BPS             : 193622
        DURATION        : 00:23:22.221000000
        NUMBER_OF_FRAMES: 65730
        NUMBER_OF_BYTES : 33937627
        _STATISTICS_WRITING_APP: mkvpropedit v66.0.0 ('Josie') 64-bit
        _STATISTICS_WRITING_DATE_UTC: 2025-05-29 11:27:18
        encoder         : Lavc61.19.100 pcm_s16le
frame=  112 fps=0.0 q=-0.0 size=N/A time=00:00:04.67 bitrate=N/A speed=9.04x    frame=  271 fps=260 q=-0.0 size=N/A time=00:00:11.30 bitrate=N/A speed=10.8x    frame=  473 fps=303 q=-0.0 size=N/A time=00:00:19.72 bitrate=N/A speed=12.6x    frame=  682 fps=330 q=-0.0 size=N/A time=00:00:28.44 bitrate=N/A speed=13.7x    frame=  928 fps=358 q=-0.0 size=N/A time=00:00:38.70 bitrate=N/A speed=14.9x    frame= 1157 fps=374 q=-0.0 size=N/A time=00:00:48.25 bitrate=N/A speed=15.6x    frame= 1398 fps=386 q=-0.0 size=N/A time=00:00:58.30 bitrate=N/A speed=16.1x    frame= 1630 fps=394 q=-0.0 size=N/A time=00:01:07.98 bitrate=N/A speed=16.4x    frame= 1867 fps=401 q=-0.0 size=N/A time=00:01:17.86 bitrate=N/A speed=16.7x    frame= 2106 fps=408 q=-0.0 size=N/A time=00:01:27.83 bitrate=N/A speed=  17x    frame= 2362 fps=415 q=-0.0 size=N/A time=00:01:38.51 bitrate=N/A speed=17.3x    frame= 2589 fps=418 q=-0.0 size=N/A time=00:01:47.98 bitrate=N/A speed=17.4x    frame= 2768 fps=412 q=-0.0 size=N/A time=00:01:55.44 bitrate=N/A speed=17.2x    frame= 3016 fps=416 q=-0.0 size=N/A time=00:02:05.79 bitrate=N/A speed=17.4x    frame= 3264 fps=420 q=-0.0 size=N/A time=00:02:16.13 bitrate=N/A speed=17.5x    frame= 3495 fps=423 q=-0.0 size=N/A time=00:02:25.77 bitrate=N/A speed=17.6x    frame= 3710 fps=422 q=-0.0 size=N/A time=00:02:34.73 bitrate=N/A speed=17.6x    frame= 3896 fps=419 q=-0.0 size=N/A time=00:02:42.49 bitrate=N/A speed=17.5x    frame= 4079 fps=415 q=-0.0 size=N/A time=00:02:50.12 bitrate=N/A speed=17.3x    frame= 4172 fps=404 q=-0.0 size=N/A time=00:02:54.00 bitrate=N/A speed=16.8x    frame= 4281 fps=394 q=-0.0 size=N/A time=00:02:58.55 bitrate=N/A speed=16.4x    frame= 4415 fps=389 q=-0.0 size=N/A time=00:03:04.14 bitrate=N/A speed=16.2x    frame= 4538 fps=382 q=-0.0 size=N/A time=00:03:09.27 bitrate=N/A speed=15.9x    frame= 4677 fps=377 q=-0.0 size=N/A time=00:03:15.06 bitrate=N/A speed=15.7x    frame= 4860 fps=376 q=-0.0 size=N/A time=00:03:22.70 bitrate=N/A speed=15.7x    frame= 5053 fps=376 q=-0.0 size=N/A time=00:03:30.75 bitrate=N/A speed=15.7x    frame= 5264 fps=377 q=-0.0 size=N/A time=00:03:39.55 bitrate=N/A speed=15.7x    frame= 5444 fps=377 q=-0.0 size=N/A time=00:03:47.06 bitrate=N/A speed=15.7x    frame= 5704 fps=381 q=-0.0 size=N/A time=00:03:57.90 bitrate=N/A speed=15.9x    frame= 5971 fps=385 q=-0.0 size=N/A time=00:04:09.04 bitrate=N/A speed=16.1x    frame= 6241 fps=390 q=-0.0 size=N/A time=00:04:20.30 bitrate=N/A speed=16.3x    frame= 6507 fps=394 q=-0.0 size=N/A time=00:04:31.39 bitrate=N/A speed=16.4x    frame= 6788 fps=398 q=-0.0 size=N/A time=00:04:43.11 bitrate=N/A speed=16.6x    frame= 7064 fps=402 q=-0.0 size=N/A time=00:04:54.62 bitrate=N/A speed=16.8x    frame= 7336 fps=406 q=-0.0 size=N/A time=00:05:05.97 bitrate=N/A speed=16.9x    frame= 7622 fps=410 q=-0.0 size=N/A time=00:05:17.90 bitrate=N/A speed=17.1x    frame= 7878 fps=412 q=-0.0 size=N/A time=00:05:28.57 bitrate=N/A speed=17.2x    frame= 8114 fps=414 q=-0.0 size=N/A time=00:05:38.42 bitrate=N/A speed=17.2x    frame= 8387 fps=417 q=-0.0 size=N/A time=00:05:49.80 bitrate=N/A speed=17.4x    frame= 8605 fps=417 q=-0.0 size=N/A time=00:05:58.90 bitrate=N/A speed=17.4x    frame= 8834 fps=417 q=-0.0 size=N/A time=00:06:08.45 bitrate=N/A speed=17.4x    frame= 9085 fps=419 q=-0.0 size=N/A time=00:06:18.92 bitrate=N/A speed=17.5x    frame= 9340 fps=420 q=-0.0 size=N/A time=00:06:29.55 bitrate=N/A speed=17.5x    frame= 9604 fps=423 q=-0.0 size=N/A time=00:06:40.60 bitrate=N/A speed=17.6x    frame= 9868 fps=424 q=-0.0 size=N/A time=00:06:51.57 bitrate=N/A speed=17.7x    frame=10114 fps=426 q=-0.0 size=N/A time=00:07:01.83 bitrate=N/A speed=17.8x    frame=10382 fps=428 q=-0.0 size=N/A time=00:07:13.01 bitrate=N/A speed=17.8x    frame=10620 fps=428 q=-0.0 size=N/A time=00:07:22.94 bitrate=N/A speed=17.9x    frame=10880 fps=430 q=-0.0 size=N/A time=00:07:33.78 bitrate=N/A speed=17.9x    frame=11148 fps=432 q=-0.0 size=N/A time=00:07:44.96 bitrate=N/A speed=  18x    frame=11414 fps=433 q=-0.0 size=N/A time=00:07:56.05 bitrate=N/A speed=18.1x    frame=11651 fps=434 q=-0.0 size=N/A time=00:08:05.94 bitrate=N/A speed=18.1x    frame=11903 fps=435 q=-0.0 size=N/A time=00:08:16.45 bitrate=N/A speed=18.1x    frame=12166 fps=436 q=-0.0 size=N/A time=00:08:27.42 bitrate=N/A speed=18.2x    frame=12415 fps=437 q=-0.0 size=N/A time=00:08:37.80 bitrate=N/A speed=18.2x    frame=12693 fps=439 q=-0.0 size=N/A time=00:08:49.40 bitrate=N/A speed=18.3x    frame=12961 fps=440 q=-0.0 size=N/A time=00:09:00.58 bitrate=N/A speed=18.4x    frame=13212 fps=441 q=-0.0 size=N/A time=00:09:11.05 bitrate=N/A speed=18.4x    frame=13454 fps=442 q=-0.0 size=N/A time=00:09:21.14 bitrate=N/A speed=18.4x    frame=13605 fps=439 q=-0.0 size=N/A time=00:09:27.44 bitrate=N/A speed=18.3x    frame=13858 fps=440 q=-0.0 size=N/A time=00:09:37.99 bitrate=N/A speed=18.4x    frame=14122 fps=441 q=-0.0 size=N/A time=00:09:49.00 bitrate=N/A speed=18.4x    frame=14402 fps=443 q=-0.0 size=N/A time=00:10:00.68 bitrate=N/A speed=18.5x    frame=14648 fps=443 q=-0.0 size=N/A time=00:10:10.94 bitrate=N/A speed=18.5x    frame=14916 fps=444 q=-0.0 size=N/A time=00:10:22.12 bitrate=N/A speed=18.5x    frame=15164 fps=445 q=-0.0 size=N/A time=00:10:32.46 bitrate=N/A speed=18.6x    frame=15421 fps=446 q=-0.0 size=N/A time=00:10:43.18 bitrate=N/A speed=18.6x    frame=15676 fps=446 q=-0.0 size=N/A time=00:10:53.81 bitrate=N/A speed=18.6x    frame=15946 fps=448 q=-0.0 size=N/A time=00:11:05.08 bitrate=N/A speed=18.7x    frame=16199 fps=448 q=-0.0 size=N/A time=00:11:15.63 bitrate=N/A speed=18.7x    frame=16455 fps=449 q=-0.0 size=N/A time=00:11:26.31 bitrate=N/A speed=18.7x    frame=16709 fps=449 q=-0.0 size=N/A time=00:11:36.90 bitrate=N/A speed=18.7x    frame=16944 fps=450 q=-0.0 size=N/A time=00:11:46.70 bitrate=N/A speed=18.8x    frame=17233 fps=451 q=-0.0 size=N/A time=00:11:58.75 bitrate=N/A speed=18.8x    frame=17451 fps=451 q=-0.0 size=N/A time=00:12:07.85 bitrate=N/A speed=18.8x    frame=17703 fps=451 q=-0.0 size=N/A time=00:12:18.36 bitrate=N/A speed=18.8x    frame=17968 fps=452 q=-0.0 size=N/A time=00:12:29.41 bitrate=N/A speed=18.8x    frame=18196 fps=452 q=-0.0 size=N/A time=00:12:38.92 bitrate=N/A speed=18.8x    frame=18431 fps=452 q=-0.0 size=N/A time=00:12:48.72 bitrate=N/A speed=18.8x    frame=18666 fps=452 q=-0.0 size=N/A time=00:12:58.52 bitrate=N/A speed=18.8x    frame=18899 fps=452 q=-0.0 size=N/A time=00:13:08.24 bitrate=N/A speed=18.8x    frame=19176 fps=453 q=-0.0 size=N/A time=00:13:19.79 bitrate=N/A speed=18.9x    frame=19415 fps=453 q=-0.0 size=N/A time=00:13:29.76 bitrate=N/A speed=18.9x    frame=19692 fps=454 q=-0.0 size=N/A time=00:13:41.32 bitrate=N/A speed=18.9x    frame=19958 fps=455 q=-0.0 size=N/A time=00:13:52.41 bitrate=N/A speed=  19x    frame=20208 fps=455 q=-0.0 size=N/A time=00:14:02.84 bitrate=N/A speed=  19x    frame=20471 fps=456 q=-0.0 size=N/A time=00:14:13.81 bitrate=N/A speed=  19x    frame=20745 fps=456 q=-0.0 size=N/A time=00:14:25.23 bitrate=N/A speed=  19x    frame=21013 fps=457 q=-0.0 size=N/A time=00:14:36.41 bitrate=N/A speed=19.1x    frame=21285 fps=458 q=-0.0 size=N/A time=00:14:47.76 bitrate=N/A speed=19.1x    frame=21558 fps=459 q=-0.0 size=N/A time=00:14:59.14 bitrate=N/A speed=19.1x    frame=21816 fps=459 q=-0.0 size=N/A time=00:15:09.90 bitrate=N/A speed=19.2x    frame=22081 fps=460 q=-0.0 size=N/A time=00:15:20.96 bitrate=N/A speed=19.2x    frame=22361 fps=461 q=-0.0 size=N/A time=00:15:32.64 bitrate=N/A speed=19.2x    frame=22624 fps=461 q=-0.0 size=N/A time=00:15:43.60 bitrate=N/A speed=19.2x    frame=22912 fps=462 q=-0.0 size=N/A time=00:15:55.62 bitrate=N/A speed=19.3x    frame=23194 fps=463 q=-0.0 size=N/A time=00:16:07.38 bitrate=N/A speed=19.3x    frame=23471 fps=464 q=-0.0 size=N/A time=00:16:18.93 bitrate=N/A speed=19.3x    frame=23746 fps=464 q=-0.0 size=N/A time=00:16:30.40 bitrate=N/A speed=19.4x    frame=24019 fps=465 q=-0.0 size=N/A time=00:16:41.79 bitrate=N/A speed=19.4x    frame=24308 fps=466 q=-0.0 size=N/A time=00:16:53.84 bitrate=N/A speed=19.4x    frame=24572 fps=467 q=-0.0 size=N/A time=00:17:04.85 bitrate=N/A speed=19.5x    frame=24851 fps=467 q=-0.0 size=N/A time=00:17:16.49 bitrate=N/A speed=19.5x    frame=25115 fps=468 q=-0.0 size=N/A time=00:17:27.50 bitrate=N/A speed=19.5x    frame=25376 fps=468 q=-0.0 size=N/A time=00:17:38.39 bitrate=N/A speed=19.5x    frame=25635 fps=468 q=-0.0 size=N/A time=00:17:49.19 bitrate=N/A speed=19.5x    frame=25891 fps=469 q=-0.0 size=N/A time=00:17:59.87 bitrate=N/A speed=19.5x    frame=26153 fps=469 q=-0.0 size=N/A time=00:18:10.79 bitrate=N/A speed=19.6x    frame=26429 fps=470 q=-0.0 size=N/A time=00:18:22.30 bitrate=N/A speed=19.6x    frame=26696 fps=470 q=-0.0 size=N/A time=00:18:33.44 bitrate=N/A speed=19.6x    frame=26949 fps=470 q=-0.0 size=N/A time=00:18:43.99 bitrate=N/A speed=19.6x    frame=27223 fps=471 q=-0.0 size=N/A time=00:18:55.42 bitrate=N/A speed=19.6x    frame=27487 fps=471 q=-0.0 size=N/A time=00:19:06.43 bitrate=N/A speed=19.6x    frame=27756 fps=471 q=-0.0 size=N/A time=00:19:17.65 bitrate=N/A speed=19.7x    frame=27994 fps=471 q=-0.0 size=N/A time=00:19:27.62 bitrate=N/A speed=19.7x    frame=28234 fps=471 q=-0.0 size=N/A time=00:19:37.59 bitrate=N/A speed=19.7x    frame=28490 fps=472 q=-0.0 size=N/A time=00:19:48.27 bitrate=N/A speed=19.7x    frame=28739 fps=472 q=-0.0 size=N/A time=00:19:58.65 bitrate=N/A speed=19.7x    frame=28991 fps=472 q=-0.0 size=N/A time=00:20:09.16 bitrate=N/A speed=19.7x    frame=29246 fps=472 q=-0.0 size=N/A time=00:20:19.80 bitrate=N/A speed=19.7x    frame=29474 fps=472 q=-0.0 size=N/A time=00:20:29.31 bitrate=N/A speed=19.7x    frame=29727 fps=472 q=-0.0 size=N/A time=00:20:39.86 bitrate=N/A speed=19.7x    frame=29993 fps=472 q=-0.0 size=N/A time=00:20:50.95 bitrate=N/A speed=19.7x    frame=30244 fps=472 q=-0.0 size=N/A time=00:21:01.42 bitrate=N/A speed=19.7x    frame=30524 fps=473 q=-0.0 size=N/A time=00:21:13.10 bitrate=N/A speed=19.7x    frame=30775 fps=473 q=-0.0 size=N/A time=00:21:23.57 bitrate=N/A speed=19.7x    frame=31029 fps=473 q=-0.0 size=N/A time=00:21:34.16 bitrate=N/A speed=19.7x    frame=31279 fps=473 q=-0.0 size=N/A time=00:21:44.59 bitrate=N/A speed=19.7x    frame=31498 fps=473 q=-0.0 size=N/A time=00:21:53.72 bitrate=N/A speed=19.7x    frame=31601 fps=471 q=-0.0 size=N/A time=00:21:58.02 bitrate=N/A speed=19.6x    frame=31702 fps=469 q=-0.0 size=N/A time=00:22:02.23 bitrate=N/A speed=19.5x    frame=31826 fps=467 q=-0.0 size=N/A time=00:22:07.40 bitrate=N/A speed=19.5x    frame=31980 fps=466 q=-0.0 size=N/A time=00:22:13.83 bitrate=N/A speed=19.4x    frame=32134 fps=464 q=-0.0 size=N/A time=00:22:20.25 bitrate=N/A speed=19.4x    frame=32278 fps=463 q=-0.0 size=N/A time=00:22:26.26 bitrate=N/A speed=19.3x    frame=32406 fps=461 q=-0.0 size=N/A time=00:22:31.60 bitrate=N/A speed=19.2x    frame=32506 fps=460 q=-0.0 size=N/A time=00:22:35.77 bitrate=N/A speed=19.2x    frame=32615 fps=458 q=-0.0 size=N/A time=00:22:40.31 bitrate=N/A speed=19.1x    frame=32774 fps=457 q=-0.0 size=N/A time=00:22:46.94 bitrate=N/A speed=  19x    frame=32924 fps=455 q=-0.0 size=N/A time=00:22:53.20 bitrate=N/A speed=  19x    frame=33064 fps=454 q=-0.0 size=N/A time=00:22:59.04 bitrate=N/A speed=18.9x    frame=33199 fps=453 q=-0.0 size=N/A time=00:23:04.67 bitrate=N/A speed=18.9x    frame=33327 fps=451 q=-0.0 size=N/A time=00:23:10.01 bitrate=N/A speed=18.8x    frame=33423 fps=450 q=-0.0 size=N/A time=00:23:14.01 bitrate=N/A speed=18.7x    frame=33535 fps=448 q=-0.0 size=N/A time=00:23:18.68 bitrate=N/A speed=18.7x    [Parsed_psnr_10 @ 00000297600bfc40] PSNR y:47.401975 u:51.548633 v:51.815085 average:48.419412 min:34.929284 max:inf
[out#0/null @ 0000029759462f40] video:14446KiB audio:262920KiB subtitle:0KiB other streams:0KiB global headers:0KiB muxing overhead: unknown
frame=33619 fps=447 q=-0.0 Lsize=N/A time=00:23:22.19 bitrate=N/A speed=18.6x    
